<svg width="76" height="62" viewBox="0 0 76 62" fill="none" xmlns="http://www.w3.org/2000/svg">
<g clip-path="url(#clip0_18_6)">
<path d="M9.5 31C9.5 34.004 10.2372 36.9786 11.6694 39.7539C13.1017 42.5292 15.201 45.0509 17.8475 47.1751C20.4939 49.2992 23.6357 50.9842 27.0935 52.1337C30.5513 53.2833 34.2573 53.875 38 53.875C41.7427 53.875 45.4487 53.2833 48.9065 52.1337C52.3643 50.9842 55.5061 49.2992 58.1525 47.1751C60.799 45.0509 62.8983 42.5292 64.3306 39.7539C65.7628 36.9786 66.5 34.004 66.5 31C66.5 27.996 65.7628 25.0214 64.3306 22.2461C62.8983 19.4708 60.799 16.9491 58.1525 14.8249C55.5061 12.7008 52.3643 11.0158 48.9065 9.86626C45.4487 8.71668 41.7427 8.125 38 8.125C34.2573 8.125 30.5513 8.71668 27.0935 9.86626C23.6357 11.0158 20.4939 12.7008 17.8475 14.8249C15.201 16.9491 13.1017 19.4708 11.6694 22.2461C10.2372 25.0214 9.5 27.996 9.5 31Z" stroke="black" stroke-width="2" stroke-linecap="round" stroke-linejoin="round"/>
<path d="M28.5 31H47.5" stroke="black" stroke-width="2" stroke-linecap="round" stroke-linejoin="round"/>
<path d="M38 23.375V38.625" stroke="black" stroke-width="2" stroke-linecap="round" stroke-linejoin="round"/>
</g>
<defs>
<clipPath id="clip0_18_6">
<rect width="76" height="61" fill="white" transform="translate(0 0.5)"/>
</clipPath>
</defs>
</svg>
